<?xml version="1.0" encoding="UTF-8" standalone="no"?>
<!-- Created with Inkscape (http://www.inkscape.org/) -->
<svg
   xmlns:dc="http://purl.org/dc/elements/1.1/"
   xmlns:cc="http://web.resource.org/cc/"
   xmlns:rdf="http://www.w3.org/1999/02/22-rdf-syntax-ns#"
   xmlns:svg="http://www.w3.org/2000/svg"
   xmlns="http://www.w3.org/2000/svg"
   xmlns:sodipodi="http://sodipodi.sourceforge.net/DTD/sodipodi-0.dtd"
   xmlns:inkscape="http://www.inkscape.org/namespaces/inkscape"
   width="744.09448819"
   height="1052.3622047"
   id="svg2"
   sodipodi:version="0.32"
   inkscape:version="0.44"
   sodipodi:docbase="Z:\svgkit\doc"
   sodipodi:docname="logo.svg">
  <defs
     id="defs4" />
  <sodipodi:namedview
     id="base"
     pagecolor="#ffffff"
     bordercolor="#666666"
     borderopacity="1.0"
     gridtolerance="10000"
     guidetolerance="10"
     objecttolerance="10"
     inkscape:pageopacity="0.0"
     inkscape:pageshadow="2"
     inkscape:zoom="5.6"
     inkscape:cx="6.0065305"
     inkscape:cy="1038.5861"
     inkscape:document-units="px"
     inkscape:current-layer="layer1"
     inkscape:window-width="1759"
     inkscape:window-height="956"
     inkscape:window-x="330"
     inkscape:window-y="330" />
  <metadata
     id="metadata7">
    <rdf:RDF>
      <cc:Work
         rdf:about="">
        <dc:format>image/svg+xml</dc:format>
        <dc:type
           rdf:resource="http://purl.org/dc/dcmitype/StillImage" />
      </cc:Work>
    </rdf:RDF>
  </metadata>
  <g
     inkscape:label="Layer 1"
     inkscape:groupmode="layer"
     id="layer1">
    <path
       style="font-size:12px;font-style:normal;font-weight:normal;line-height:125%;fill:#a00;fill-opacity:1;stroke:none;stroke-width:1px;stroke-linecap:butt;stroke-linejoin:miter;stroke-opacity:1;font-family:Bitstream Vera Sans"
       d="M 15.958145,19.467091 C 14.501101,20.541311 12.522588,21.078411 10.022598,21.078411 C 8.5772787,21.078411 7.3175147,20.951461 6.2433007,20.697561 C 5.1690797,20.443651 4.1632207,20.121381 3.2257227,19.730761 L 3.2257227,15.547172 L 3.7179107,15.547172 C 4.6475957,16.289362 5.6886097,16.859671 6.8409577,17.258101 C 7.9932947,17.656541 9.1007157,17.855761 10.163223,17.855761 C 10.436652,17.855761 10.796027,17.832321 11.241348,17.785451 C 11.686651,17.738571 12.049932,17.660451 12.331192,17.551071 C 12.674931,17.410451 12.958134,17.234671 13.180801,17.023731 C 13.403446,16.812801 13.514774,16.500301 13.514786,16.086232 C 13.514774,15.703422 13.352665,15.373342 13.028458,15.095992 C 12.704228,14.818662 12.229619,14.605772 11.60463,14.457322 C 10.948371,14.301082 10.255012,14.154592 9.5245507,14.017872 C 8.7940757,13.881162 8.1085297,13.707332 7.4679107,13.496392 C 5.9991567,13.019832 4.9425167,12.373352 4.2979887,11.556932 C 3.6534557,10.740542 3.3311907,9.726862 3.3311917,8.515922 C 3.3311907,6.890932 4.0597057,5.564762 5.5167387,4.537402 C 6.9737647,3.510072 8.8468097,2.996402 11.13588,2.996392 C 12.284307,2.996402 13.419071,3.107732 14.540176,3.330372 C 15.661257,3.553042 16.631959,3.832342 17.452286,4.168262 L 17.452286,8.187792 L 16.971817,8.187792 C 16.268678,7.625302 15.407351,7.154602 14.387833,6.775682 C 13.36829,6.396792 12.327275,6.207342 11.264786,6.207322 C 10.889777,6.207342 10.51673,6.232732 10.145645,6.283492 C 9.7745437,6.334292 9.4171217,6.429992 9.0733797,6.570602 C 8.7686847,6.687812 8.5069667,6.865542 8.2882227,7.103812 C 8.0694667,7.342102 7.9600917,7.613592 7.9600977,7.918262 C 7.9600917,8.379212 8.1358727,8.732732 8.4874417,8.978812 C 8.8389977,9.224912 9.5030597,9.449522 10.47963,9.652642 C 11.120245,9.785462 11.735479,9.914362 12.325333,10.039352 C 12.915166,10.164362 13.54993,10.336242 14.22963,10.554982 C 15.565553,10.992492 16.551881,11.588192 17.188614,12.342092 C 18.864828,14.821872 18.167793,17.548358 15.958145,19.467091 z "
       id="path1877"
       sodipodi:nodetypes="csscccssssssssssssssscccssssssssssss" />
    <path
       id="path1883"
       d="M 37.057755,3.312792 L 30.694473,20.762011 L 25.655411,20.762011 L 19.29213,3.312792 L 24.014786,3.312792 L 28.233536,15.570602 L 32.452286,3.312792 L 37.057755,3.312792 z "
       style="font-size:12px;font-style:normal;font-weight:normal;line-height:125%;fill:#080;fill-opacity:1;stroke:none;stroke-width:1px;stroke-linecap:butt;stroke-linejoin:miter;stroke-opacity:1;font-family:Bitstream Vera Sans"
       sodipodi:nodetypes="cccccccc" />
    <path
       style="font-size:12px;font-style:normal;font-weight:normal;line-height:125%;fill:#00a;fill-opacity:1;stroke:none;stroke-width:1px;stroke-linecap:butt;stroke-linejoin:miter;stroke-opacity:1;font-family:Bitstream Vera Sans"
       d="M 54.999167,19.765911 C 54.217897,20.070601 53.182747,20.373341 51.893697,20.674121 C 50.604617,20.974901 49.319467,21.125291 48.038227,21.125291 C 45.069467,21.125291 42.745249,20.318651 41.065567,18.705371 C 39.385878,17.092091 38.546035,14.863582 38.546036,12.019822 C 38.546035,9.308902 39.39369,7.123352 41.089005,5.463182 C 42.784312,3.803042 45.147597,2.972972 48.178857,2.972952 C 49.327277,2.972972 50.421027,3.076482 51.460107,3.283492 C 52.499147,3.490542 53.655397,3.902652 54.928857,4.519822 L 54.928857,8.609672 L 54.424947,8.609672 C 54.206177,8.445622 53.885867,8.213192 53.464007,7.912402 C 53.042117,7.611632 52.635867,7.355772 52.245257,7.144822 C 51.792117,6.894842 51.262827,6.679992 50.657367,6.500292 C 50.051887,6.320622 49.409307,6.230772 48.729637,6.230762 C 47.932747,6.230772 47.210097,6.347962 46.561667,6.582322 C 45.913217,6.816712 45.331187,7.176092 44.815567,7.660452 C 44.323378,8.129212 43.934698,8.724912 43.649548,9.447562 C 43.364389,10.170222 43.221811,11.004212 43.221817,11.949512 C 43.221811,13.879202 43.733528,15.355772 44.756977,16.379202 C 45.780407,17.402641 47.292127,17.914361 49.292137,17.914351 C 49.463997,17.914361 49.653447,17.910451 49.860497,17.902631 C 50.067507,17.894821 50.256967,17.883111 50.428857,17.867481 L 50.428857,14.445602 L 46.948387,14.445602 L 46.948387,11.152642 L 54.999167,11.152642 L 54.999167,19.765911 z "
       id="path1885"
       sodipodi:nodetypes="cssssssscccssssssssssscccccc" />
    <path
       id="path1887"
       d="M 75.307757,20.762011 L 69.788227,20.762011 L 64.573387,13.777642 L 63.518697,15.054982 L 63.518697,20.762011 L 59.018697,20.762011 L 59.018697,3.312792 L 63.518697,3.312792 L 63.518697,11.211232 L 69.753067,3.312792 L 74.967917,3.312792 L 68.147607,11.387012 L 75.307757,20.762011 z M 81.518697,20.762011 L 77.299947,20.762011 L 77.299947,7.601852 L 81.518697,7.601852 L 81.518697,20.762011 z M 81.635887,5.726852 L 77.182757,5.726852 L 77.182757,2.527642 L 81.635887,2.527642 L 81.635887,5.726852 z M 93.917136,20.644821 C 93.463996,20.762011 92.983526,20.853811 92.475726,20.920211 C 91.967906,20.986621 91.346816,21.019821 90.612446,21.019821 C 88.971816,21.019821 87.751116,20.687791 86.950336,20.023731 C 86.149556,19.359671 85.749166,18.222951 85.749166,16.613571 L 85.749166,10.461232 L 84.014787,10.461232 L 84.014787,7.601852 L 85.749166,7.601852 L 85.749166,3.840142 L 89.967916,3.840142 L 89.967916,7.601852 L 93.917136,7.601852 L 93.917136,10.461232 L 89.967916,10.461232 L 89.967916,15.125292 C 89.967906,15.586232 89.971816,15.988582 89.979636,16.332322 C 89.987436,16.676081 90.049936,16.984671 90.167136,17.258101 C 90.276496,17.531541 90.469856,17.748341 90.747206,17.908491 C 91.024546,18.068651 91.428846,18.148731 91.960106,18.148731 C 92.178846,18.148731 92.465956,18.101861 92.821426,18.008101 C 93.176886,17.914361 93.424936,17.828421 93.565566,17.750291 L 93.917136,17.750291 L 93.917136,20.644821 z "
       style="font-size:12px;font-style:normal;font-weight:normal;line-height:125%;fill:black;fill-opacity:1;stroke:none;stroke-width:1px;stroke-linecap:butt;stroke-linejoin:miter;stroke-opacity:1;font-family:Bitstream Vera Sans"
       sodipodi:nodetypes="ccccccccccccccccccccccccsssccccccccccccsssssccc" />
  </g>
</svg>
