<?xml version="1.0" encoding="UTF-8" standalone="no"?>
<svg
   xmlns:dc="http://purl.org/dc/elements/1.1/"
   xmlns:cc="http://web.resource.org/cc/"
   xmlns:rdf="http://www.w3.org/1999/02/22-rdf-syntax-ns#"
   xmlns:svg="http://www.w3.org/2000/svg"
   xmlns="http://www.w3.org/2000/svg"
   xmlns:sodipodi="http://sodipodi.sourceforge.net/DTD/sodipodi-0.dtd"
   xmlns:inkscape="http://www.inkscape.org/namespaces/inkscape"
   version="1.0"
   baseProfile="full"
   id="body"
   width="200"
   height="200"
   viewBox="0 0 1 1"
   preserveAspectRatio="none"
   sodipodi:version="0.32"
   inkscape:version="0.45.1"
   sodipodi:docname="latexsvg.svg"
   inkscape:output_extension="org.inkscape.output.svg.inkscape"
   sodipodi:docbase="Z:\svgkit\web">
  <metadata
     id="metadata60">
    <rdf:RDF>
      <cc:Work
         rdf:about="">
        <dc:format>image/svg+xml</dc:format>
        <dc:type
           rdf:resource="http://purl.org/dc/dcmitype/StillImage" />
      </cc:Work>
    </rdf:RDF>
  </metadata>
  <defs
     id="defs58" />
  <sodipodi:namedview
     inkscape:window-height="868"
     inkscape:window-width="985"
     inkscape:pageshadow="2"
     inkscape:pageopacity="0.0"
     guidetolerance="10.0"
     gridtolerance="10.0"
     objecttolerance="10.0"
     borderopacity="1.0"
     bordercolor="#666666"
     pagecolor="#ffffff"
     id="base"
     width="200px"
     height="200px"
     inkscape:zoom="3.0497152"
     inkscape:cx="106.21661"
     inkscape:cy="103.05743"
     inkscape:window-x="773"
     inkscape:window-y="333"
     inkscape:current-layer="body" />
  <title
     id="title3">SVG drawing</title>
  <desc
     id="desc5">This was produced by version 4.2 of GNU libplot, a free library for exporting 2-D vector graphics.</desc>
  <rect
     style="opacity:1;fill:#ffffff;fill-opacity:1;stroke:none;stroke-width:1;stroke-linecap:square;stroke-miterlimit:4;stroke-dasharray:none;stroke-dashoffset:0;stroke-opacity:1"
     id="rect2232"
     width="1"
     height="1"
     x="0"
     y="0" />
  <g
     id="content"
     transform="matrix(1.3795025e-3,0,0,-1.3798646e-3,-2.8145582,-0.1675722)"
     xml:space="preserve"
     stroke-miterlimit="10.433"
     fill-rule="even-odd"
     font-style="normal"
     font-variant="normal"
     font-weight="normal"
     font-stretch="normal"
     font-size-adjust="none"
     letter-spacing="normal"
     word-spacing="normal"
     style="font-style:normal;font-variant:normal;font-weight:normal;font-stretch:normal;letter-spacing:normal;word-spacing:normal;text-anchor:start;fill:none;fill-opacity:1;stroke:#000000;stroke-width:0.12583321;stroke-linecap:butt;stroke-linejoin:miter;stroke-miterlimit:10.43299961;stroke-dasharray:none;stroke-dashoffset:0;stroke-opacity:1">
<path
   d="M 2183.9,-260.61 L 2181.2,-260.61 C 2180,-272.56 2178.5,-288 2157.6,-288 L 2147.2,-288 C 2141.9,-288 2142,-287.12 2142,-282.96 L 2142,-218.76 C 2142,-214.46 2142.2,-213 2152.3,-213 L 2155.9,-213 L 2155.9,-209.56 C 2152.4,-209.8 2141.9,-210.24 2137.7,-210.24 C 2134.1,-210.24 2123.5,-209.8 2120.6,-209.56 L 2120.6,-213 L 2123,-213 C 2131.6,-213 2132,-214.2 2132,-218.64 L 2132,-282.12 C 2132,-286.55 2131.6,-288 2123,-288 L 2120.6,-288 L 2120.6,-291 L 2180.8,-291 L 2183.9,-260.61 z "
   id="path9"
   style="fill:#000000;stroke-width:0" />
<path
   d="M 2180.4,-208.82 L 2180.4,-208.63 L 2180.3,-208.44 L 2180.3,-208.35 L 2180.2,-208.27 L 2180.2,-208.18 L 2180.1,-208.1 L 2180.1,-208.02 L 2180.1,-207.94 L 2180,-207.86 L 2180,-207.79 L 2179.9,-207.72 L 2179.9,-207.65 L 2179.9,-207.58 L 2179.8,-207.52 L 2179.7,-207.46 L 2179.7,-207.41 L 2179.6,-207.35 L 2179.6,-207.3 L 2179.5,-207.26 L 2179.4,-207.21 L 2179.4,-207.17 L 2179.3,-207.14 L 2179.2,-207.11 L 2179.1,-207.08 L 2179,-207.06 L 2178.9,-207.04 L 2178.8,-207.02 L 2178.7,-207.01 L 2178.6,-207 L 2178.4,-207 C 2177,-207 2176.8,-207.66 2176.4,-208.82 L 2158.6,-255.76 C 2157.8,-257.92 2156.1,-261 2149.6,-261 L 2149.6,-263.97 C 2152.1,-263.73 2156.4,-263.76 2157.8,-263.76 C 2160.4,-263.76 2162.7,-263.76 2166.6,-264 L 2166.6,-261 C 2163.1,-260.93 2161.1,-259.47 2161.1,-257.36 C 2161.1,-256.8 2161.1,-256.64 2161.5,-255.68 L 2165.2,-246 L 2166.2,-243 L 2176.1,-217.03 L 2185.9,-243 L 2166.2,-243 L 2165.2,-246 L 2186.9,-246 L 2191.4,-257.52 C 2191.8,-258.47 2191.8,-258.79 2191.8,-258.95 C 2191.8,-261.34 2187.6,-261 2185.4,-261 L 2185.4,-264 C 2192.1,-263.73 2192.3,-263.76 2196.7,-263.76 C 2201.2,-263.76 2202.6,-263.76 2207.2,-264 L 2207.2,-261 L 2205.9,-261 C 2200.8,-261 2200,-260.36 2199.1,-258.08 L 2180.4,-208.82 z "
   id="path11"
   style="fill:#000000;stroke-width:0" />
<path
   d="M 2270.7,-210.6 L 2198.9,-210.6 L 2196.8,-236.82 L 2199.4,-236.82 C 2201.1,-217.93 2202.2,-214 2221.1,-214 C 2223.2,-214 2226.6,-213.62 2227.5,-213.86 C 2229.9,-214.22 2230,-215.65 2230,-218.4 L 2230,-282.01 C 2230,-286.07 2230,-288 2218.3,-288 L 2214,-288 L 2214,-291 C 2217.8,-290.97 2230.1,-290.76 2234.8,-290.76 C 2239.5,-290.76 2251.9,-290.76 2255.7,-291 L 2255.7,-288 L 2251.4,-288 C 2239.7,-288 2240,-286.25 2240,-282.01 L 2240,-218.4 C 2240,-215.41 2240.2,-214.34 2241.9,-213.86 C 2242.8,-213.62 2246.3,-214 2248.5,-214 C 2267.4,-214 2268.5,-218.23 2270.2,-236.82 L 2272.8,-236.82 L 2270.7,-210.6 z "
   id="path13"
   style="fill:#000000;stroke-width:0" />
<path
   d="M 2333.9,-286.34 L 2331.3,-286.34 C 2328.4,-304.99 2325.5,-314 2305.3,-314 L 2289.1,-314 C 2283.8,-314 2284,-313.07 2284,-308.7 L 2284,-276 L 2294.4,-276 C 2305.9,-276 2307,-279.82 2307,-290.4 L 2310,-290.4 L 2310,-258.96 L 2307,-258.96 C 2307,-269.24 2305.7,-273 2294.4,-273 L 2284,-273 L 2284,-243.78 C 2284,-239.83 2284.2,-238 2289.1,-238 L 2305,-238 C 2322.5,-238 2326.2,-244.23 2328,-262.19 L 2330.7,-262.19 L 2327.6,-235.24 L 2262.5,-235.24 L 2262.5,-238 L 2264.9,-238 C 2273.5,-238 2274,-239.41 2274,-244.62 L 2274,-307.86 C 2274,-312.28 2273.6,-314 2264.9,-314 L 2262.5,-314 L 2262.5,-317 L 2329.1,-317 L 2333.9,-286.34 z "
   id="path15"
   style="fill:#000000;stroke-width:0" />
<path
   d="M 2369.4,-245.3 L 2385.9,-221.27 C 2387.8,-218.4 2391.2,-213.14 2402.1,-213.02 L 2402.1,-210 C 2397.2,-209.8 2396,-210.24 2390.2,-210.24 C 2386.9,-210.24 2379.1,-209.8 2376.3,-209.56 L 2376.3,-213.02 C 2381.4,-213.38 2382.7,-216.25 2382.7,-218.29 C 2382.7,-219.6 2382.4,-220.32 2381.8,-221.39 L 2367.5,-242.43 L 2351.3,-218.52 C 2351,-218.05 2349.9,-217.21 2349.9,-216.61 C 2349.9,-214.94 2352.4,-213 2356.7,-213 L 2356.7,-209.56 C 2353.9,-209.8 2344.9,-210.24 2341.5,-210.24 C 2338.1,-210.24 2329.6,-209.8 2326.7,-209.56 L 2326.7,-213 C 2335.8,-213 2337.1,-213.6 2339.6,-217.45 L 2362,-250.56 L 2341.9,-279.85 C 2339.8,-282.84 2335.9,-287.62 2325,-287.74 L 2325,-291 C 2330.2,-290.97 2331.6,-290.76 2337.8,-290.76 C 2340.9,-290.76 2348.3,-290.97 2350.9,-291.21 L 2350.9,-288 C 2346.4,-287.75 2344.4,-284.61 2344.4,-282.48 C 2344.4,-281.17 2345.2,-280.33 2346.3,-279.26 L 2363.9,-253.55 L 2383.2,-282.48 C 2384,-283.56 2383.8,-283.68 2383.8,-284.16 C 2383.8,-285.59 2381.7,-287.62 2377,-287.74 L 2377,-291.21 C 2379.9,-290.97 2389.4,-290.76 2392.9,-290.76 C 2396.1,-290.76 2404.2,-290.97 2407,-291.21 L 2407,-288 C 2400.3,-288 2397.6,-287.74 2395,-283.56 L 2369.4,-245.3 z "
   id="path17"
   style="fill:#000000;stroke-width:0" />
<path
   d="M 2474.3,-241.36 L 2473.7,-241.2 L 2473.1,-241.02 L 2472.6,-240.81 L 2472,-240.57 L 2471.5,-240.32 L 2471,-240.04 L 2470.5,-239.73 L 2469.9,-239.41 L 2469.4,-239.06 L 2469,-238.69 L 2468.5,-238.3 L 2468,-237.89 L 2467.6,-237.46 L 2467.2,-237.01 L 2466.7,-236.54 L 2466.4,-236.05 L 2466,-235.55 L 2465.6,-235.03 L 2465.3,-234.49 L 2465,-233.93 L 2464.7,-233.36 L 2464.4,-232.77 L 2464.1,-232.17 L 2463.9,-231.56 L 2463.7,-230.93 L 2463.5,-230.28 L 2463.4,-229.63 L 2463.2,-228.96 L 2463.1,-228.28 L 2463.1,-227.59 L 2463,-226.89 L 2463,-226.18 C 2463,-217.81 2469.6,-210.49 2478.8,-210.49 C 2498.4,-210.49 2501.1,-229.69 2501.8,-234.78 C 2502,-236.22 2502,-236.7 2503.2,-236.7 C 2504.5,-236.7 2504.6,-236.1 2504.6,-233.95 L 2504.6,-209.8 C 2504.6,-207.65 2504.5,-207.49 2503.3,-207.49 C 2503,-207.49 2502.5,-207.05 2501.6,-208.6 L 2497.7,-215.89 C 2492,-208.48 2484.1,-207.49 2478.8,-207.49 C 2465.6,-207.49 2456,-217.92 2456,-229.88 C 2456,-235.62 2458,-240.88 2462.3,-245.66 C 2466.5,-250.32 2470.7,-251.4 2479.2,-253.55 C 2483.4,-254.51 2489.9,-256.18 2491.6,-256.9 C 2497.2,-259.65 2501,-266.11 2501,-272.8 C 2501,-281.77 2494.6,-290.51 2484.7,-290.51 C 2479.3,-290.51 2471.9,-289.14 2466,-283.8 C 2459.1,-277.58 2458.8,-268.98 2458.7,-265.03 C 2458.6,-264.07 2457.5,-264.07 2457.2,-264.07 C 2455.9,-264.07 2456,-264.67 2456,-266.82 L 2456,-290.97 C 2456,-293.12 2455.9,-293.51 2457.1,-293.51 C 2457.8,-293.51 2457.9,-293.3 2458.7,-292.05 C 2459.2,-291.09 2461.7,-286.67 2462.7,-284.88 C 2467,-289.66 2474.5,-293.51 2484.8,-293.51 C 2498.2,-293.51 2508,-282.25 2508,-269.21 C 2508,-261.92 2505.2,-256.54 2501.9,-252.6 C 2497.5,-247.22 2492.1,-245.9 2487.4,-244.71 L 2474.3,-241.36 z "
   id="path19"
   style="fill:#aa0000;stroke-width:0" />
<path
   d="M 2587.5,-221.39 L 2587.6,-221.11 L 2587.7,-220.81 L 2587.8,-220.5 L 2588,-220.18 L 2588.1,-219.85 L 2588.2,-219.52 L 2588.4,-219.18 L 2588.6,-218.84 L 2588.8,-218.5 L 2589,-218.15 L 2589.2,-217.81 L 2589.4,-217.46 L 2589.7,-217.12 L 2590,-216.79 L 2590.3,-216.46 L 2590.6,-216.13 L 2591,-215.82 L 2591.4,-215.51 L 2591.8,-215.22 L 2592.2,-214.94 L 2592.7,-214.67 L 2593.2,-214.42 L 2593.7,-214.18 L 2594.2,-213.96 L 2594.8,-213.76 L 2595.5,-213.58 L 2596.1,-213.43 L 2596.5,-213.36 L 2596.8,-213.3 L 2597.2,-213.24 L 2597.5,-213.19 L 2597.9,-213.14 L 2598.3,-213.1 L 2598.7,-213.07 L 2599.1,-213.05 L 2599.6,-213.03 L 2600,-213.02 L 2600,-210 C 2593.9,-209.8 2593.6,-210.24 2588.9,-210.24 C 2585.8,-210.24 2580,-209.8 2577.1,-209.56 L 2577.1,-213 C 2582.9,-213.12 2585,-216.48 2585,-218.88 C 2585,-219.6 2584.6,-219.84 2583.9,-221.51 L 2561.5,-280.45 L 2538,-218.29 C 2537.4,-216.97 2537.5,-216.73 2537.5,-216.49 C 2537.5,-213.02 2543.4,-213 2546.4,-213 L 2546.4,-209.56 C 2543.6,-209.8 2534.4,-210.24 2530.9,-210.24 C 2527.7,-210.24 2519.8,-209.8 2517,-209.56 L 2517,-213 C 2524.1,-213 2526,-213.02 2527.7,-217.81 L 2555.7,-291.45 C 2556.3,-293.12 2556.5,-293.51 2558.2,-293.51 C 2559.9,-293.51 2560,-293.18 2560.8,-291.33 L 2587.5,-221.39 z "
   id="path21"
   style="fill:#44aa00;stroke-width:0" />
<path
   d="M 2677,-267.54 L 2677,-267.11 L 2677,-266.71 L 2677,-266.33 L 2677,-265.96 L 2677.1,-265.62 L 2677.1,-265.3 L 2677.1,-264.99 L 2677.2,-264.71 L 2677.3,-264.44 L 2677.3,-264.19 L 2677.4,-263.96 L 2677.5,-263.74 L 2677.7,-263.54 L 2677.8,-263.35 L 2678,-263.18 L 2678.2,-263.02 L 2678.4,-262.88 L 2678.6,-262.75 L 2678.9,-262.63 L 2679,-262.57 L 2679.1,-262.52 L 2679.3,-262.47 L 2679.4,-262.43 L 2679.6,-262.39 L 2679.8,-262.35 L 2679.9,-262.31 L 2680.1,-262.27 L 2680.3,-262.24 L 2680.5,-262.21 L 2680.7,-262.18 L 2681,-262.16 L 2681.2,-262.13 L 2681.4,-262.11 L 2681.6,-262.09 L 2681.9,-262.08 L 2682.2,-262.06 L 2682.4,-262.05 L 2682.7,-262.04 L 2683,-262.03 L 2683.3,-262.02 L 2683.6,-262.01 L 2683.9,-262.01 L 2684.2,-262 L 2684.6,-262 L 2684.9,-262 L 2684.9,-258.81 C 2681.8,-259.05 2673.5,-259.24 2669.9,-259.24 C 2666.1,-259.24 2655.7,-259.05 2652.5,-258.81 L 2652.5,-262 L 2656.2,-262 C 2666.7,-262 2667,-263.5 2667,-268.02 L 2667,-275.67 C 2667,-289.3 2651.4,-290.51 2648.3,-290.51 C 2638.9,-290.51 2616,-284.73 2616,-250.32 C 2616,-215.77 2639,-210.49 2647.5,-210.49 C 2657.9,-210.49 2670.3,-218.03 2673.4,-239.21 C 2673.7,-240.52 2673.7,-240.88 2675.1,-240.88 C 2676.8,-240.88 2677,-240.52 2677,-238.13 L 2677,-209.8 C 2677,-207.65 2676.8,-207.49 2675.6,-207.49 C 2674.9,-207.49 2674.7,-207.65 2674,-208.48 L 2668.2,-217.93 C 2664.7,-213.62 2657.4,-207.49 2646,-207.49 C 2624.4,-207.49 2605,-226.07 2605,-250.32 C 2605,-275.07 2624.2,-293.51 2646.2,-293.51 C 2654.6,-293.51 2664.3,-290.82 2668.8,-283.32 C 2670.9,-287.15 2674.9,-290.88 2675.8,-290.88 C 2676.8,-290.88 2677,-290.22 2677,-288.46 L 2677,-267.54 z "
   id="path23"
   style="fill:#0044aa;stroke-width:0" />
<path
   d="M 2173.7,-416.09 L 2173.5,-415.8 L 2173.2,-415.51 L 2173,-415.24 L 2172.8,-414.97 L 2172.6,-414.71 L 2172.4,-414.46 L 2172.1,-414.22 L 2171.9,-413.99 L 2171.7,-413.76 L 2171.6,-413.54 L 2171.4,-413.33 L 2171.2,-413.13 L 2171,-412.93 L 2170.9,-412.74 L 2170.6,-412.38 L 2170.3,-412.04 L 2170,-411.73 L 2169.7,-411.44 L 2169.5,-411.17 L 2169.3,-410.93 L 2169.1,-410.69 L 2168.9,-410.48 L 2168.7,-410.28 L 2168.5,-410.09 L 2168.3,-409.91 L 2168.1,-409.75 L 2168,-409.59 L 2167.6,-409.29 L 2167.3,-409.01 L 2167,-408.73 L 2166.8,-408.59 L 2166.7,-408.45 L 2166.5,-408.3 L 2166.3,-408.14 L 2166.1,-407.98 L 2165.9,-407.81 C 2161.2,-404.3 2156.2,-403 2151.8,-403 C 2142.1,-403 2136,-411.5 2136,-420.8 L 2138,-420.88 C 2138,-412.83 2144,-407.09 2150.6,-407.09 C 2157.6,-407.09 2162.7,-413.46 2169.9,-422.47 L 2169.9,-422.47 C 2167,-427.25 2160.4,-436 2150.9,-436 C 2142.3,-436 2138,-427.71 2138,-420.88 L 2136,-420.8 C 2136,-429.88 2142.1,-439 2151.6,-439 C 2159.8,-439 2167.1,-433.47 2172.3,-425.42 C 2177.7,-431.8 2177.8,-431.8 2180.2,-433.71 C 2184.8,-437.21 2189.8,-439 2194.2,-439 C 2203.9,-439 2211,-430.26 2211,-420.72 L 2209,-420.64 C 2209,-428.69 2202.6,-434.43 2195.5,-434.43 C 2188.4,-434.43 2183.3,-428.05 2176.1,-419.04 L 2176.1,-419.04 C 2179.1,-414.26 2185.6,-406 2195.1,-406 C 2203.8,-406 2209,-414.03 2209,-420.64 L 2211,-420.72 C 2211,-411.63 2204.5,-403 2194.5,-403 C 2186.2,-403 2178.9,-408.33 2173.7,-416.09 z "
   id="path25"
   style="fill:#000000;stroke-width:0" />
<path
   d="M 2238.1,-641 L 2252.5,-602.92 L 2249.5,-602.92 C 2244.9,-615.35 2232.2,-623.48 2218.4,-627.07 C 2215.9,-627.67 2204.2,-631 2181.3,-631 L 2109.2,-631 L 2170,-559.4 C 2170.9,-558.45 2171.1,-558.09 2171.1,-557.49 C 2171.1,-557.25 2171.1,-556.89 2170.3,-555.7 L 2114.6,-480 L 2180.1,-480 C 2196.1,-480 2207,-481.27 2208.1,-481.45 C 2214.5,-482.41 2224.9,-484.44 2234.4,-490.42 C 2237.3,-492.33 2245.5,-497.71 2249.5,-507.4 L 2252.5,-507.4 L 2238.1,-474 L 2096.8,-474 C 2094,-474 2093.9,-474.09 2093.5,-474.64 C 2093.4,-475 2093.4,-477.27 2093.4,-478.58 L 2156.6,-565.14 L 2094.7,-637.71 C 2093.5,-639.14 2093.5,-639.74 2093.5,-639.86 C 2093.5,-641.18 2094.6,-641 2096.8,-641 L 2238.1,-641 z "
   id="path27"
   style="fill:#000000;stroke-width:0" />
<path
   d="M 2109.2,-711.79 L 2109.2,-711.67 L 2109.2,-711.54 L 2109.3,-711.41 L 2109.3,-711.26 L 2109.3,-711.11 L 2109.4,-710.95 L 2109.4,-710.78 L 2109.5,-710.61 L 2109.5,-710.43 L 2109.5,-710.24 L 2109.6,-710.05 L 2109.6,-709.86 L 2109.7,-709.47 L 2109.8,-709.08 L 2109.9,-708.68 L 2110,-708.29 L 2110.1,-708.1 L 2110.1,-707.91 L 2110.2,-707.73 L 2110.2,-707.55 L 2110.2,-707.38 L 2110.3,-707.21 L 2110.3,-707.05 L 2110.3,-706.9 L 2110.4,-706.75 L 2110.4,-706.61 L 2110.4,-706.49 L 2110.5,-706.37 C 2111.6,-702.07 2111.6,-701.98 2113.4,-699.35 C 2116,-695.45 2119.8,-692 2125.1,-692 C 2128,-692 2130,-693.66 2130,-697.36 C 2130,-701.75 2126.4,-710.83 2124.8,-714.74 C 2123.8,-717.37 2124,-717.85 2124,-718.88 C 2124,-723.42 2127.6,-726 2130.9,-726 C 2138.8,-726 2142,-714.53 2142,-713.46 C 2142,-712.66 2141.4,-712.43 2140.8,-712.43 C 2139.9,-712.43 2139.7,-712.98 2139.5,-713.78 C 2137.6,-720.32 2134.2,-724 2131.2,-724 C 2129.9,-724 2129,-723.03 2129,-720.79 C 2129,-718.96 2129.8,-717.21 2130.7,-715.22 C 2131.9,-712.19 2136,-703.02 2136,-698.56 C 2136,-692.58 2131.6,-690 2125.5,-690 C 2119.1,-690 2114.9,-693.74 2112.6,-696.65 C 2112.1,-692.26 2108.6,-690 2104.5,-690 C 2101.6,-690 2099.6,-691.71 2098.4,-694.02 C 2096.4,-697.76 2095.6,-701.75 2095.6,-701.91 C 2095.6,-702.62 2096.2,-702.94 2096.8,-702.94 C 2097.9,-702.94 2097.9,-702.62 2098.5,-700.55 C 2099.5,-696.65 2100.9,-692 2104.2,-692 C 2106.3,-692 2106.8,-693.96 2106.8,-695.69 C 2106.8,-697.12 2106.4,-698.64 2105.8,-701.27 C 2105.6,-701.91 2104.4,-706.61 2104.1,-707.72 C 2102.8,-712.98 2102.2,-715.06 2101.1,-719.68 C 2100.8,-720.88 2100.3,-722.87 2100.3,-723.19 C 2100.3,-725.02 2101.9,-726 2102.9,-726 C 2104.3,-726 2105.5,-724.87 2106.1,-723.74 C 2106.3,-723.27 2107,-720.56 2107.4,-718.88 L 2109.2,-711.79 z "
   id="path29"
   style="fill:#000000;stroke-width:0" />
<path
   d="M 2202.9,-698 L 2203,-698 L 2203.1,-698 L 2203.3,-698.01 L 2203.4,-698.01 L 2203.6,-698.02 L 2203.9,-698.02 L 2204,-698.02 L 2204.1,-698.02 L 2204.3,-698.01 L 2204.4,-698 L 2204.5,-697.99 L 2204.7,-697.98 L 2204.8,-697.96 L 2204.9,-697.93 L 2205,-697.9 L 2205.1,-697.86 L 2205.2,-697.82 L 2205.3,-697.77 L 2205.4,-697.71 L 2205.5,-697.65 L 2205.6,-697.61 L 2205.6,-697.58 L 2205.6,-697.54 L 2205.7,-697.5 L 2205.7,-697.45 L 2205.8,-697.41 L 2205.8,-697.36 L 2205.8,-697.31 L 2205.8,-697.25 L 2205.9,-697.2 L 2205.9,-697.14 L 2205.9,-697.08 L 2205.9,-697.01 L 2206,-696.95 L 2206,-696.88 L 2206,-696.81 L 2206,-696.73 L 2206,-696.65 L 2206,-696.57 L 2206,-696.49 C 2206,-694.65 2203.9,-694 2202.6,-694 L 2152.4,-694 C 2151.2,-694 2150,-694.65 2150,-696.49 C 2150,-698.32 2151.2,-698 2152.1,-698 L 2202.9,-698 z "
   id="path31"
   style="fill:#000000;stroke-width:0" />
<path
   d="M 2202.6,-715 L 2202.7,-715 L 2202.8,-715 L 2202.9,-715 L 2203.1,-715.01 L 2203.2,-715.01 L 2203.3,-715.01 L 2203.6,-715.01 L 2203.8,-715 L 2203.9,-714.99 L 2204,-714.98 L 2204.2,-714.97 L 2204.3,-714.96 L 2204.5,-714.93 L 2204.6,-714.91 L 2204.7,-714.88 L 2204.9,-714.84 L 2205,-714.8 L 2205.1,-714.75 L 2205.2,-714.7 L 2205.3,-714.64 L 2205.4,-714.57 L 2205.5,-714.49 L 2205.6,-714.45 L 2205.6,-714.41 L 2205.7,-714.36 L 2205.7,-714.32 L 2205.8,-714.27 L 2205.8,-714.21 L 2205.8,-714.16 L 2205.8,-714.1 L 2205.9,-714.04 L 2205.9,-713.98 L 2205.9,-713.91 L 2205.9,-713.85 L 2206,-713.78 L 2206,-713.7 L 2206,-713.63 L 2206,-713.55 L 2206,-713.47 L 2206,-713.38 C 2206,-711.55 2204.2,-711 2202.9,-711 L 2152.1,-711 C 2150.9,-711 2150,-711.55 2150,-713.38 C 2150,-715.22 2151.5,-715 2152.4,-715 L 2202.6,-715 z "
   id="path33"
   style="fill:#000000;stroke-width:0" />
<path
   d="M 2235,-674.09 L 2235,-673.99 L 2235,-673.89 L 2235,-673.8 L 2235,-673.71 L 2235,-673.63 L 2235,-673.54 L 2235,-673.46 L 2235,-673.38 L 2235,-673.31 L 2235,-673.23 L 2235,-673.17 L 2235,-673.1 L 2235,-673.03 L 2235,-672.97 L 2235,-672.91 L 2235,-672.86 L 2234.9,-672.8 L 2234.9,-672.75 L 2234.9,-672.7 L 2234.9,-672.65 L 2234.9,-672.61 L 2234.9,-672.56 L 2234.9,-672.52 L 2234.9,-672.48 L 2234.9,-672.45 L 2234.8,-672.41 L 2234.8,-672.38 L 2234.8,-672.35 L 2234.8,-672.32 L 2234.8,-672.29 L 2234.7,-672.24 L 2234.7,-672.19 L 2234.6,-672.15 L 2234.6,-672.12 L 2234.5,-672.09 L 2234.4,-672.07 L 2234.4,-672.05 L 2234.3,-672.04 L 2234.2,-672.02 L 2234.1,-672.01 L 2234,-672.01 L 2233.9,-672 L 2233.8,-672 L 2233.7,-672 L 2233.6,-672 L 2233.6,-672 L 2233.5,-672 L 2233.4,-672 L 2233.4,-672 L 2233.3,-672 L 2233.2,-672 C 2229.9,-675.1 2225.7,-677 2218.1,-677 L 2218.1,-680 C 2220.3,-680 2224.5,-679.59 2229,-677.44 L 2229,-718.32 C 2229,-721.27 2228.8,-722 2221.4,-722 L 2218.6,-722 L 2218.6,-724.86 C 2221.9,-724.62 2228.8,-724.76 2232.3,-724.76 C 2235.9,-724.76 2242.9,-724.62 2246.1,-724.86 L 2246.1,-722 L 2243.3,-722 C 2235.8,-722 2235,-721.1 2235,-718.32 L 2235,-674.09 z "
   id="path35"
   style="fill:#000000;stroke-width:0" />
<path
   d="M 2355,-429.86 L 2355,-429.74 L 2355,-429.61 L 2355,-429.5 L 2355,-429.38 L 2355,-429.27 L 2355,-429.16 L 2355,-429.05 L 2355,-428.95 L 2355,-428.85 L 2355,-428.76 L 2355,-428.67 L 2355,-428.58 L 2355,-428.49 L 2355,-428.41 L 2355,-428.33 L 2355,-428.26 L 2355,-428.18 L 2355,-428.11 L 2354.9,-428.05 L 2354.9,-427.98 L 2354.9,-427.92 L 2354.9,-427.86 L 2354.9,-427.8 L 2354.9,-427.75 L 2354.9,-427.7 L 2354.9,-427.65 L 2354.8,-427.56 L 2354.8,-427.48 L 2354.7,-427.4 L 2354.7,-427.34 L 2354.6,-427.28 L 2354.5,-427.23 L 2354.4,-427.18 L 2354.3,-427.14 L 2354.2,-427.11 L 2354.2,-427.1 L 2354.1,-427.08 L 2354.1,-427.07 L 2354,-427.06 L 2354,-427.05 L 2353.9,-427.04 L 2353.8,-427.04 L 2353.7,-427.03 L 2353.7,-427.02 L 2353.6,-427.02 L 2353.5,-427.01 L 2353.4,-427.01 L 2353.3,-427.01 L 2353.3,-427.01 L 2353.2,-427 L 2353.1,-427 L 2353,-427 L 2352.9,-427 L 2352.8,-427 L 2352.6,-427 C 2349.8,-430.23 2343.8,-435 2331.5,-435 L 2331.5,-438 C 2334.3,-438 2340.3,-438.11 2347,-435.01 L 2347,-497.29 C 2347,-501.6 2346.6,-503 2335.9,-503 L 2332.2,-503 L 2332.2,-506.5 C 2335.4,-506.26 2347,-505.76 2351,-505.76 C 2354.9,-505.76 2366.4,-506.26 2369.6,-506.5 L 2369.6,-503 L 2365.9,-503 C 2355.4,-503 2355,-501.57 2355,-497.29 L 2355,-429.86 z "
   id="path37"
   style="fill:#000000;stroke-width:0" />
<polyline
   points="2291,-560 2408.2,-560 2408.2,-555.21 2291,-555.21 "
   id="polyline39"
   style="fill:#000000;fill-rule:nonzero;stroke-width:0" />
<path
   d="M 2315.9,-634.35 L 2315.9,-634.27 L 2316,-634.16 L 2316,-634.02 L 2316.1,-633.85 L 2316.2,-633.66 L 2316.3,-633.45 L 2316.4,-633.21 L 2316.6,-632.95 L 2316.7,-632.67 L 2316.9,-632.37 L 2317.1,-632.05 L 2317.3,-631.72 L 2317.5,-631.37 L 2317.7,-631.01 L 2317.9,-630.64 L 2318.2,-630.26 L 2318.4,-629.87 L 2318.7,-629.47 L 2319,-629.07 L 2319.3,-628.66 L 2319.6,-628.24 L 2319.9,-627.83 L 2320.2,-627.41 L 2320.5,-626.99 L 2320.9,-626.58 L 2321.2,-626.16 L 2321.6,-625.76 L 2322,-625.36 L 2322.3,-624.96 L 2322.7,-624.57 L 2323.1,-624.2 L 2323.6,-623.83 C 2326.7,-620.97 2330.7,-619.8 2335.4,-619.8 C 2340.2,-619.8 2342,-623.07 2342,-627.42 C 2342,-634.24 2337,-647.86 2334.6,-654.32 C 2333.5,-657.19 2332.9,-658.74 2332.9,-660.9 C 2332.9,-666.28 2336.6,-670.2 2342.3,-670.2 C 2353.4,-670.2 2357.6,-652.99 2357.6,-652.29 C 2357.6,-651.69 2357.1,-651.21 2356.4,-651.21 C 2355.4,-651.21 2355.2,-651.57 2354.6,-653.6 C 2351.9,-663.41 2347.3,-667.2 2342.7,-667.2 C 2341.5,-667.2 2339.6,-667.11 2339.6,-664.24 C 2339.6,-661.25 2340.9,-657.67 2341.6,-655.99 C 2344,-649.42 2349,-636.03 2349,-629.21 C 2349,-622.04 2344.8,-616.8 2335.7,-616.8 C 2325.1,-616.8 2319.5,-624.23 2317.3,-627.18 C 2317,-620.37 2312.1,-616.8 2306.8,-616.8 C 2303,-616.8 2300.4,-619.02 2298.3,-623 C 2296.2,-627.3 2294.5,-634.47 2294.5,-634.95 C 2294.5,-635.43 2295,-636.03 2295.8,-636.03 C 2296.8,-636.03 2296.9,-635.91 2297.6,-633.16 C 2299.5,-625.87 2301.7,-619.8 2306.4,-619.8 C 2309.2,-619.8 2310,-621.46 2310,-624.55 C 2310,-627.18 2308.9,-631.84 2308.1,-635.55 C 2307.1,-639.85 2305.9,-644.16 2304.8,-648.46 C 2304.3,-650.73 2303,-656.11 2302.4,-658.27 C 2301.6,-661.37 2300.2,-666.99 2300.2,-667.59 C 2300.2,-669.26 2301.6,-670.2 2303.3,-670.2 C 2304.8,-670.2 2306.4,-669.59 2307.4,-668.07 C 2307.6,-667.47 2308.7,-663.29 2309.3,-660.9 C 2310.2,-657.31 2311.1,-653.72 2311.9,-650.14 L 2315.9,-634.35 z "
   id="path41"
   style="fill:#000000;stroke-width:0" />
<path
   d="M 2383.6,-618.59 L 2383.7,-618.47 L 2383.9,-618.35 L 2384,-618.21 L 2384.2,-618.08 L 2384.4,-617.93 L 2384.5,-617.78 L 2384.7,-617.63 L 2384.9,-617.47 L 2385.1,-617.3 L 2385.3,-617.14 L 2385.7,-616.79 L 2386.1,-616.44 L 2386.6,-616.09 L 2387,-615.73 L 2387.4,-615.38 L 2387.8,-615.04 L 2388,-614.88 L 2388.2,-614.72 L 2388.4,-614.56 L 2388.6,-614.41 L 2388.8,-614.27 L 2389,-614.13 L 2389.1,-614 L 2389.3,-613.87 L 2389.4,-613.75 L 2389.5,-613.65 C 2394.5,-609.1 2399,-604.72 2399,-597.47 C 2399,-587.98 2391.1,-582 2381.2,-582 C 2371.7,-582 2366,-589.17 2366,-596.19 C 2366,-600.1 2368.6,-600 2369.6,-600 C 2371.3,-600 2374,-598.99 2374,-596.43 C 2374,-592.28 2369.8,-592 2368.8,-592 C 2371.1,-586.39 2376.4,-585 2380.4,-585 C 2387.8,-585 2392,-591.04 2392,-597.47 C 2392,-605.76 2386,-611.81 2376.4,-621.46 L 2366.3,-631.82 C 2365.4,-632.74 2366,-632.91 2366,-635 L 2396.9,-635 L 2399.2,-620.58 L 2396.7,-620.58 C 2396.4,-622.17 2395.8,-626.16 2394.9,-627.67 C 2394.4,-628.31 2388.3,-628 2387.1,-628 L 2372.9,-628 L 2383.6,-618.59 z "
   id="path43"
   style="fill:#000000;stroke-width:0" />
<path
   d="M 2534.3,-548 L 2534.5,-548 L 2534.6,-548.01 L 2535,-548.02 L 2535.3,-548.04 L 2535.6,-548.07 L 2535.8,-548.08 L 2535.9,-548.08 L 2536.1,-548.09 L 2536.2,-548.09 L 2536.4,-548.09 L 2536.5,-548.08 L 2536.7,-548.07 L 2536.8,-548.05 L 2536.9,-548.03 L 2537,-548 L 2537.2,-547.96 L 2537.3,-547.91 L 2537.4,-547.86 L 2537.4,-547.83 L 2537.5,-547.79 L 2537.5,-547.76 L 2537.6,-547.72 L 2537.6,-547.68 L 2537.7,-547.63 L 2537.7,-547.59 L 2537.7,-547.54 L 2537.8,-547.48 L 2537.8,-547.43 L 2537.8,-547.37 L 2537.9,-547.31 L 2537.9,-547.24 L 2537.9,-547.17 L 2537.9,-547.1 L 2537.9,-547.02 L 2538,-546.94 L 2538,-546.86 L 2538,-546.77 L 2538,-546.68 L 2538,-546.59 L 2538,-546.49 C 2538,-544.22 2536.1,-544 2534.3,-544 L 2463.9,-544 C 2462.2,-544 2460,-544.22 2460,-546.37 C 2460,-548.64 2462.1,-548 2463.9,-548 L 2534.3,-548 z "
   id="path45"
   style="fill:#000000;stroke-width:0" />
<path
   d="M 2534.3,-571 L 2534.6,-571 L 2535,-570.99 L 2535.3,-570.97 L 2535.4,-570.96 L 2535.6,-570.95 L 2535.8,-570.93 L 2535.9,-570.91 L 2536.1,-570.88 L 2536.2,-570.85 L 2536.4,-570.81 L 2536.5,-570.77 L 2536.7,-570.72 L 2536.8,-570.67 L 2536.9,-570.61 L 2537,-570.54 L 2537.2,-570.47 L 2537.3,-570.39 L 2537.4,-570.3 L 2537.5,-570.21 L 2537.6,-570.1 L 2537.7,-569.99 L 2537.7,-569.87 L 2537.8,-569.8 L 2537.8,-569.73 L 2537.8,-569.67 L 2537.9,-569.59 L 2537.9,-569.52 L 2537.9,-569.44 L 2537.9,-569.36 L 2537.9,-569.28 L 2538,-569.19 L 2538,-569.11 L 2538,-569.02 L 2538,-568.92 L 2538,-568.83 L 2538,-568.73 C 2538,-566.46 2536.1,-567 2534.3,-567 L 2463.9,-567 C 2462.2,-567 2460,-566.46 2460,-568.61 C 2460,-570.88 2462.1,-571 2463.9,-571 L 2534.3,-571 z "
   id="path47"
   style="fill:#000000;stroke-width:0" />
<path
   d="M 2620.8,-461 L 2634.3,-461 C 2631.1,-474.57 2629,-483.42 2629,-493.11 C 2629,-494.78 2629.1,-507.2 2633.9,-507.2 C 2636.5,-507.2 2638.6,-505.19 2638.6,-503.39 C 2638.6,-502.79 2638.6,-502.55 2637.8,-500.76 C 2634.6,-492.51 2634,-482.23 2634,-481.39 C 2634,-480.66 2634.6,-471.99 2637.1,-461 L 2650.4,-461 C 2652,-461 2655.9,-461.43 2655.9,-457.6 C 2655.9,-454.97 2653.7,-455 2651.5,-455 L 2612.2,-455 C 2609.4,-455 2605.4,-454.97 2599.9,-460.83 C 2596.8,-464.3 2592.9,-470.63 2592.9,-471.35 C 2592.9,-472.07 2593.6,-472.31 2594.3,-472.31 C 2595.1,-472.31 2595.2,-471.95 2595.8,-471.23 C 2602,-461.43 2608.2,-461 2611.2,-461 L 2618.1,-461 C 2615.4,-470.06 2612.4,-480.57 2602.6,-501.72 C 2601.7,-503.63 2601.7,-503.87 2601.7,-504.58 C 2601.7,-507.1 2603.8,-507.2 2604.9,-507.2 C 2608.4,-507.2 2609.3,-504.28 2610.8,-499.56 C 2612.7,-493.47 2612.7,-493.23 2613.9,-488.45 L 2620.8,-461 z "
   id="path49"
   style="fill:#000000;stroke-width:0" />
<path
   d="M 2683,-446.85 L 2683.1,-446.74 L 2683.3,-446.61 L 2683.4,-446.48 L 2683.6,-446.34 L 2683.7,-446.2 L 2683.9,-446.05 L 2684.1,-445.89 L 2684.3,-445.73 L 2684.5,-445.57 L 2684.7,-445.4 L 2685.1,-445.06 L 2685.5,-444.71 L 2686,-444.35 L 2686.4,-444 L 2686.8,-443.65 L 2687.2,-443.31 L 2687.4,-443.15 L 2687.6,-442.98 L 2687.8,-442.83 L 2688,-442.68 L 2688.2,-442.53 L 2688.3,-442.39 L 2688.5,-442.26 L 2688.6,-442.14 L 2688.8,-442.02 L 2688.9,-441.91 C 2693.9,-437.37 2698,-432.98 2698,-425.73 C 2698,-416.25 2690.3,-410 2680.6,-410 C 2671.1,-410 2665,-417.31 2665,-424.46 C 2665,-428.36 2667.9,-429 2669,-429 C 2670.7,-429 2673,-427.78 2673,-424.7 C 2673,-420.55 2669.1,-421 2668.2,-421 C 2670.5,-414.85 2675.8,-413 2679.7,-413 C 2687.2,-413 2691,-419.17 2691,-425.73 C 2691,-434.02 2685.2,-440.08 2675.8,-449.72 L 2665.7,-460.08 C 2664.8,-460.93 2665,-461.08 2665,-463 L 2696.2,-463 L 2698.6,-448.84 L 2696.1,-448.84 C 2695.8,-450.44 2695.2,-454.42 2694.2,-455.94 C 2693.8,-456.58 2687.7,-456 2686.4,-456 L 2672.2,-456 L 2683,-446.85 z "
   id="path51"
   style="fill:#000000;stroke-width:0" />
<polyline
   points="2590,-560 2708,-560 2708,-555.21 2590,-555.21 "
   id="polyline53"
   style="fill:#000000;fill-rule:nonzero;stroke-width:0" />
<path
   d="M 2634,-627.78 L 2634,-626.38 L 2634,-625.02 L 2634.1,-623.69 L 2634.2,-622.39 L 2634.3,-621.13 L 2634.4,-619.91 L 2634.5,-618.72 L 2634.7,-617.56 L 2634.8,-616.43 L 2635,-615.34 L 2635.2,-614.28 L 2635.4,-613.25 L 2635.6,-612.25 L 2635.9,-611.28 L 2636.2,-610.34 L 2636.4,-609.43 L 2636.7,-608.55 L 2637,-607.7 L 2637.7,-606.08 L 2638.3,-604.57 L 2639.1,-603.17 L 2639.8,-601.87 L 2640.6,-600.67 L 2641.4,-599.56 L 2642.3,-598.55 L 2643.1,-597.62 L 2644,-596.78 L 2644.9,-596.03 L 2645.8,-595.35 L 2646.7,-594.74 L 2647.6,-594.21 L 2648.5,-593.74 L 2649.3,-593.34 L 2650.2,-593 L 2651,-592.71 L 2651.9,-592.48 L 2652.6,-592.3 L 2653.4,-592.16 L 2654.1,-592.07 L 2654.8,-592.02 L 2655.4,-592 C 2659.8,-592 2664.1,-593.61 2666.3,-598 C 2664.9,-598 2660.4,-597.65 2660.4,-602.55 C 2660.4,-605.18 2662.1,-608 2665.2,-608 C 2668.2,-608 2670.1,-606.02 2670.1,-602.2 C 2670.1,-595.98 2665.6,-590 2655.3,-590 C 2640.3,-590 2624,-605.38 2624,-631.6 C 2624,-664.48 2638.6,-671.51 2649,-671.51 C 2662,-671.51 2673,-660.32 2673,-644.99 C 2673,-629.09 2661.9,-619 2650.1,-619 L 2649.6,-621 C 2656.2,-621 2659.6,-625.34 2661.4,-629.33 C 2663.3,-633.76 2663,-639.73 2663,-644.88 C 2663,-650.97 2663.3,-656.35 2661.1,-660.9 C 2658.1,-666.63 2653.8,-668.51 2649,-668.51 L 2649,-668.51 C 2641.5,-668.51 2637.9,-661.93 2636.8,-659.46 C 2635.7,-656.35 2634.5,-650.49 2634.5,-642.13 C 2634.5,-632.68 2638.8,-621 2649.6,-621 L 2650.1,-619 C 2639.2,-619 2635.2,-627.8 2634,-631.01 L 2634,-627.78 z "
   id="path55"
   style="fill:#000000;stroke-width:0" />
</g></svg>
